<svg width="45" height="45" viewBox="0 0 45 45" fill="none" xmlns="http://www.w3.org/2000/svg">
<path d="M10 23.75V13.75H6.25C5.25544 13.75 4.30161 14.1451 3.59835 14.8483C2.89509 15.5516 2.5 16.5054 2.5 17.5V40C2.50186 40.2321 2.56833 40.4592 2.69197 40.6557C2.81561 40.8522 2.99152 41.0104 3.2 41.1125C3.40085 41.2038 3.6223 41.2404 3.84184 41.2184C4.06139 41.1965 4.27122 41.1168 4.45 40.9875L10.8875 36.25H27.6875C28.1613 36.264 28.6329 36.1806 29.0731 36.0049C29.5133 35.8293 29.9127 35.5651 30.2467 35.2288C30.5807 34.8925 30.8421 34.4912 31.0146 34.0497C31.1872 33.6083 31.2673 33.1361 31.25 32.6625V31.25H17.5C15.5109 31.25 13.6032 30.4598 12.1967 29.0533C10.7902 27.6468 10 25.7391 10 23.75V23.75Z" fill="white"/>
<path d="M38.75 5H17.5C16.5054 5 15.5516 5.39509 14.8483 6.09835C14.1451 6.80161 13.75 7.75544 13.75 8.75V23.75C13.75 24.7446 14.1451 25.6984 14.8483 26.4016C15.5516 27.1049 16.5054 27.5 17.5 27.5H34.4375L40.4125 32.1375C40.5901 32.2688 40.7994 32.3507 41.0189 32.3749C41.2385 32.399 41.4606 32.3646 41.6625 32.275C41.8752 32.1737 42.055 32.0143 42.181 31.8153C42.3071 31.6162 42.3743 31.3856 42.375 31.15V8.75C42.3755 7.77672 41.9977 6.84136 41.3212 6.14158C40.6448 5.44181 39.7227 5.03244 38.75 5V5Z" fill="white"/>
</svg>
